<svg height="512" viewBox="0 0 64 64" width="512" xmlns="http://www.w3.org/2000/svg"><g fill="#bddbff"><rect height="8" rx="1" width="14" x="33" y="45"/><path d="m25 45a2.006 2.006 0 0 1 2 2v14h-10v-14a2.006 2.006 0 0 1 2-2z"/><path d="m52.73 22.27a17.931 17.931 0 0 0 -8.97-4.87 4.7 4.7 0 0 1 -.12.51 11.336 11.336 0 0 1 -.8 2.25 12.01 12.01 0 0 1 -21.68 0 11.336 11.336 0 0 1 -.8-2.25 4.7 4.7 0 0 1 -.12-.51 18 18 0 0 0 -14.24 17.6h2a3.992 3.992 0 0 0 3 3.87 3.657 3.657 0 0 0 1 .13 4 4 0 0 0 4-4 4 4 0 0 0 8 0 4 4 0 0 0 8 0 4 4 0 0 0 8 0 4 4 0 0 0 8 0 4 4 0 0 0 4 4 3.657 3.657 0 0 0 1-.13 3.992 3.992 0 0 0 3-3.87h2a17.983 17.983 0 0 0 -5.27-12.73z"/><circle cx="32" cy="19" r="4"/><circle cx="26" cy="12" r="2"/><circle cx="32" cy="9" r="2"/><circle cx="38" cy="12" r="2"/></g><path d="m32 12a3 3 0 1 0 -3-3 3 3 0 0 0 3 3zm0-4a1 1 0 1 1 -1 1 1 1 0 0 1 1-1z" fill="#3d9ae2"/><path d="m38 15a3 3 0 1 0 -3-3 3 3 0 0 0 3 3zm0-4a1 1 0 1 1 -1 1 1 1 0 0 1 1-1z" fill="#3d9ae2"/><path d="m29 12a3 3 0 1 0 -3 3 3 3 0 0 0 3-3zm-4 0a1 1 0 1 1 1 1 1 1 0 0 1 -1-1z" fill="#3d9ae2"/><path d="m32 14a5 5 0 1 0 5 5 5.006 5.006 0 0 0 -5-5zm0 8a3 3 0 1 1 3-3 3 3 0 0 1 -3 3z" fill="#3d9ae2"/><path d="m46 44h-12a2 2 0 0 0 -2 2v6a2 2 0 0 0 2 2h12a2 2 0 0 0 2-2v-6a2 2 0 0 0 -2-2zm-12 8v-6h12v6z" fill="#3d9ae2"/><path d="m53.816 60a2.966 2.966 0 0 0 .184-1v-19.423a4.98 4.98 0 0 0 2.9-3.577h1.1a1 1 0 0 0 1-1 18.956 18.956 0 0 0 -14.117-18.35 13 13 0 1 0 -25.765.008 19.063 19.063 0 0 0 -14.118 18.342 1 1 0 0 0 1 1h1.1a4.977 4.977 0 0 0 2.9 3.581v19.419a2.966 2.966 0 0 0 .184 1h-6.184v2h56v-2zm-1.794-37.024a16.923 16.923 0 0 1 4.95 11.024h-.972a1 1 0 0 0 -1 1 2.994 2.994 0 0 1 -2.271 2.907 2.634 2.634 0 0 1 -.729.093 3 3 0 0 1 -3-3v-4a14.889 14.889 0 0 0 -4.965-11.1 13.13 13.13 0 0 0 .445-1.288 16.883 16.883 0 0 1 7.542 4.364zm-31.116-1.235a13.046 13.046 0 0 0 2.13 2.651c-.013.2-.036.4-.036.608v10a3 3 0 0 1 -6 0v-4a12.9 12.9 0 0 1 3.906-9.259zm4.094 4.196a12.9 12.9 0 0 0 6 2.012v7.051a3 3 0 0 1 -6 0zm8 2.012a12.9 12.9 0 0 0 6-2.012v9.063a3 3 0 0 1 -6 0zm7.964-3.557a13.046 13.046 0 0 0 2.13-2.651 12.9 12.9 0 0 1 3.906 9.259v4a3 3 0 0 1 -6 0v-10c0-.208-.023-.407-.036-.608zm-8.964-20.392a11 11 0 1 1 -11 11 11.013 11.013 0 0 1 11-11zm-23 31a1 1 0 0 0 -1-1h-.971a17.066 17.066 0 0 1 12.493-15.384 13.081 13.081 0 0 0 .443 1.281 14.889 14.889 0 0 0 -4.965 11.103v4a3 3 0 0 1 -3 3 2.713 2.713 0 0 1 -.754-.1 2.987 2.987 0 0 1 -2.246-2.9zm17 25h-8v-13a1 1 0 0 1 1-1h6a1 1 0 0 1 1 1zm2 0v-13a3 3 0 0 0 -3-3h-6a3 3 0 0 0 -3 3v13h-3a1 1 0 0 1 -1-1v-19a4.982 4.982 0 0 0 4-2.031 4.954 4.954 0 0 0 8 0 4.954 4.954 0 0 0 8 0 4.954 4.954 0 0 0 8 0 4.954 4.954 0 0 0 8 0 4.982 4.982 0 0 0 4 2.031v19a1 1 0 0 1 -1 1z" fill="#3d9ae2"/><path d="m23 51h2v4h-2z" fill="#3d9ae2"/></svg>